<!DOCTYPE svg PUBLIC "-//W3C//DTD SVG 1.1//EN" "http://www.w3.org/Graphics/SVG/1.1/DTD/svg11.dtd">
<!-- Uploaded to: SVG Repo, www.svgrepo.com, Transformed by: SVG Repo Mixer Tools -->
<svg width="256px" height="256px" viewBox="-6.4 -6.4 76.80 76.80" xmlns="http://www.w3.org/2000/svg" xmlns:xlink="http://www.w3.org/1999/xlink" aria-hidden="true" role="img" class="iconify iconify--emojione-monotone" preserveAspectRatio="xMidYMid meet" fill="#000000" stroke="#000000" stroke-width="0.00064" transform="matrix(1, 0, 0, 1, 0, 0)rotate(0)">
<g id="SVGRepo_bgCarrier" stroke-width="0">
<path transform="translate(-6.4, -6.4), scale(2.4)" d="M16,28.38560137046235C19.041357449277537,28.25674494303394,22.20267292185504,28.125597075675067,24.59336053984491,26.241168295817495C27.0327353391465,24.318362471220343,28.10354258458911,21.281505629427073,28.840619980602874,18.264147751604494C29.633540576292962,15.018185768734813,30.48703182056871,11.491951604641205,28.916775870784676,8.54249597394041C27.320972726444108,5.545054333797179,24.011824167850115,3.870893169107802,20.724528133850818,3.019465634666796C17.68790356555933,2.2329633718760755,14.52421035510392,2.7962767251968046,11.658774050317767,4.07257973049761C8.974466458189223,5.26820562567559,6.772381318093838,7.28031449158294,5.365901017263546,9.860400089727975C3.9895725151963264,12.385174410707702,3.76833922414678,15.249374372489623,4.00369020803155,18.115273085261187C4.265376128391348,21.301855651989616,4.34431058969678,24.91682326911971,6.773111298619778,26.996177758336795C9.20927944687379,29.081839688914016,12.795866408029752,28.52135430794187,16,28.38560137046235" fill="#001f3f" strokewidth="0"/>
</g>
<g id="SVGRepo_tracerCarrier" stroke-linecap="round" stroke-linejoin="round"/>
<g id="SVGRepo_iconCarrier">
<path d="M32 2C15.432 2 2 15.432 2 32s13.432 30 30 30s30-13.432 30-30S48.568 2 32 2zm10.345 20.61H27.68v6.673h12.854v5.039H27.68v12.166h-6.024V17.512h20.689v5.098z" fill="#fac402"/>
</g>
</svg>