<svg xmlns="http://www.w3.org/2000/svg" version="1.1" xmlns:xlink="http://www.w3.org/1999/xlink" xmlns:svgjs="http://svgjs.dev/svgjs" width="1000" height="489" viewBox="0 0 1000 489"><g transform="matrix(1,0,0,1,-0.6051487410607592,-0.568900989385213)"><svg viewBox="0 0 396 194" data-background-color="#ffffff" preserveAspectRatio="xMidYMid meet" height="489" width="1000" xmlns="http://www.w3.org/2000/svg" xmlns:xlink="http://www.w3.org/1999/xlink"><g id="tight-bounds" transform="matrix(1,0,0,1,0.23986158773527677,0.22569896102399412)"><svg viewBox="0 0 395.52 193.54800253791558" height="193.54800253791558" width="395.52"><g><svg viewBox="0 0 395.52 193.54800253791558" height="193.54800253791558" width="395.52"><g transform="matrix(1,0,0,1,0,99.62781182357425)"><svg viewBox="0 0 395.52 93.92019071434132" height="93.92019071434132" width="395.52"><g id="textblocktransform"><svg viewBox="0 0 395.52 93.92019071434132" height="93.92019071434132" width="395.52" id="textblock"><g><svg viewBox="0 0 395.52 93.92019071434132" height="93.92019071434132" width="395.52"><g transform="matrix(1,0,0,1,0,0)"><svg width="395.52" viewBox="-0.8718700000000013 -24.07316 230.89703193436566 54.828810000000004" height="93.92019071434132" data-palette-color="#001f3f"><path d="M7.66 16.875l-8.532-2.314 10.478-38.634 16.687 4.526-1.565 5.771-8.155-2.212-2.639 9.729 7.104 1.926-1.618 5.965-7.103-1.927zM38.004 23.837l-17.625-3.799 8.434-39.131 8.642 1.862-7.174 33.286 8.983 1.936zM50.771 25.983l-8.721-1.506 6.815-39.446 8.721 1.507zM62.155 27.385l-7.261-0.842 10.18-20.514-5.233-19.211 8.294 0.962 3.125 11.254 4.782-10.338 7.311 0.848-9.359 19.864 5.535 19.991-8.245-0.956-3.48-12.444zM96.083 30.383l-8.885-0.518 1.945-33.403-6.02-0.351 0.382-6.558 20.874 1.215-0.381 6.559-5.97-0.348zM115.236 30.753l-8.84 0.003-0.011-40.03 11.02-0.004c2.7-0.001 5.037 0.295 7.01 0.888 1.98 0.593 3.52 1.656 4.621 3.189 1.107 1.533 1.661 3.7 1.662 6.5v0c0 1.647-0.132 3.113-0.399 4.4-0.26 1.28-0.743 2.39-1.449 3.33-0.713 0.94-1.726 1.724-3.039 2.351v0l5.485 19.368-9.14 0.003-4.405-17.939-2.52 0.001zM115.226-3.347l0.004 11.07 2.47-0.001c1.253 0 2.227-0.224 2.919-0.671 0.693-0.44 1.18-1.08 1.46-1.92 0.28-0.84 0.419-1.853 0.419-3.04v0c-0.001-1.713-0.314-3.05-0.941-4.01-0.627-0.953-1.78-1.429-3.461-1.429v0zM148.114 30.128v0c-2.993 0.212-5.397-0.146-7.214-1.074-1.817-0.927-3.17-2.349-4.061-4.264-0.898-1.921-1.443-4.245-1.636-6.972v0l-1.05-14.843c-0.195-2.76 0.018-5.134 0.639-7.123 0.614-1.995 1.756-3.573 3.425-4.733 1.669-1.154 4-1.837 6.993-2.049v0c3.026-0.214 5.453 0.132 7.281 1.039 1.829 0.913 3.191 2.314 4.087 4.202 0.895 1.882 1.44 4.202 1.635 6.962v0l1.05 14.843c0.193 2.727-0.02 5.104-0.638 7.133-0.619 2.022-1.769 3.62-3.45 4.795-1.681 1.175-4.035 1.869-7.061 2.084zM147.672 23.873v0c0.918-0.065 1.576-0.342 1.976-0.831 0.393-0.496 0.63-1.107 0.712-1.835 0.075-0.734 0.086-1.48 0.032-2.238v0l-1.359-19.222c-0.056-0.791-0.172-1.535-0.348-2.231-0.183-0.696-0.503-1.258-0.962-1.686-0.465-0.435-1.157-0.62-2.074-0.555v0c-0.851 0.06-1.476 0.338-1.876 0.834-0.393 0.489-0.631 1.091-0.714 1.805-0.083 0.714-0.097 1.467-0.041 2.259v0l1.359 19.221c0.054 0.758 0.166 1.495 0.337 2.212 0.164 0.71 0.468 1.283 0.914 1.72 0.445 0.43 1.126 0.612 2.044 0.547zM173.937 26.792l-7.488 1.042-5.518-39.648 6.161-0.857 10.778 17.956-2.656-19.086 7.25-1.009 5.517 39.648-5.923 0.824-10.983-19.432zM203.309 21.86l-8.691 1.673-7.565-39.309 8.691-1.672zM221.146 18.1v0c-2.943 0.734-5.402 0.779-7.375 0.138-1.975-0.648-3.557-1.852-4.744-3.61-1.187-1.758-2.107-3.948-2.76-6.568v0l-3.49-14.001c-0.669-2.685-0.892-5.082-0.668-7.192 0.223-2.11 1.057-3.905 2.502-5.385 1.445-1.48 3.639-2.587 6.582-3.32v0c2.879-0.717 5.241-0.805 7.087-0.262 1.851 0.535 3.324 1.566 4.419 3.093 1.089 1.529 1.908 3.396 2.458 5.602v0l0.837 3.358-8.384 2.089-0.967-3.881c-0.192-0.77-0.417-1.494-0.675-2.171-0.253-0.686-0.629-1.214-1.127-1.585-0.504-0.369-1.219-0.438-2.144-0.208v0c-0.893 0.222-1.495 0.63-1.808 1.224-0.314 0.587-0.437 1.253-0.367 1.998 0.069 0.745 0.203 1.519 0.403 2.321v0l4.551 18.262c0.216 0.867 0.485 1.642 0.806 2.324 0.321 0.683 0.753 1.187 1.294 1.512 0.541 0.325 1.226 0.385 2.054 0.178v0c0.893-0.222 1.475-0.615 1.747-1.177 0.266-0.561 0.356-1.219 0.271-1.974-0.087-0.762-0.226-1.527-0.418-2.297v0l-1.016-4.076 8.384-2.089 0.837 3.357c0.55 2.206 0.716 4.263 0.497 6.173-0.22 1.903-1.012 3.56-2.378 4.973-1.361 1.404-3.497 2.469-6.408 3.194z" opacity="1" transform="matrix(1,0,0,1,0,0)" fill="#001f3f" class="wordmark-text-0" data-fill-palette-color="primary" id="text-0"></path></svg></g></svg></g></svg></g></svg></g><g transform="matrix(1,0,0,1,150.79990464282935,0)"><svg viewBox="0 0 93.92019071434132 93.92019071434132" height="93.92019071434132" width="93.92019071434132"><g><svg xmlns="http://www.w3.org/2000/svg" xmlns:xlink="http://www.w3.org/1999/xlink" version="1.1" x="0" y="0" viewBox="0 0 100 100" style="enable-background:new 0 0 100 100;" xml:space="preserve" height="93.92019071434132" width="93.92019071434132" class="icon-icon-0" data-fill-palette-color="accent" id="icon-0"><path d="M50 0C22.388 0 0 22.388 0 50s22.388 50 50 50 50-22.388 50-50S77.612 0 50 0zM31.25 75V25l50.024 25L31.25 75z" fill="#001f3f" data-fill-palette-color="accent"></path></svg></g></svg></g><g></g></svg></g><defs></defs></svg><rect width="395.52" height="193.54800253791558" fill="none" stroke="none" visibility="hidden"></rect></g></svg></g></svg>