<svg xmlns="http://www.w3.org/2000/svg" version="1.1" xmlns:xlink="http://www.w3.org/1999/xlink" xmlns:svgjs="http://svgjs.dev/svgjs" width="1000" height="179" viewBox="0 0 1000 179"><g transform="matrix(1,0,0,1,-0.6060606060606233,0.20097137468439996)"><svg viewBox="0 0 396 71" data-background-color="#ffffff" preserveAspectRatio="xMidYMid meet" height="179" width="1000" xmlns="http://www.w3.org/2000/svg" xmlns:xlink="http://www.w3.org/1999/xlink"><g id="tight-bounds" transform="matrix(1,0,0,1,0.2400000000000091,-0.07971490280777971)"><svg viewBox="0 0 395.52 71.15942980561556" height="71.15942980561556" width="395.52"><g><svg viewBox="0 0 395.52 71.15942980561556" height="71.15942980561556" width="395.52"><g><svg viewBox="0 0 395.52 71.15942980561556" height="71.15942980561556" width="395.52"><g id="textblocktransform"><svg viewBox="0 0 395.52 71.15942980561556" height="71.15942980561556" width="395.52" id="textblock"><g><svg viewBox="0 0 395.52 71.15942980561556" height="71.15942980561556" width="395.52"><g transform="matrix(1,0,0,1,0,0)"><svg width="395.52" viewBox="3 -41.05 231.48 41.65" height="71.15942980561556" data-palette-color="#fac402"><path d="M11.95 0L3 0 3-40.5 20.5-40.5 20.5-34.45 11.95-34.45 11.95-24.25 19.4-24.25 19.4-18 11.95-18 11.95 0ZM42.7 0L24.45 0 24.45-40.5 33.4-40.5 33.4-6.05 42.7-6.05 42.7 0ZM55.2 0L46.25 0 46.25-40.5 55.2-40.5 55.2 0ZM65.99 0L58.59 0 66.44-21.8 58.94-40.5 67.39-40.5 71.84-29.55 75.44-40.5 82.89-40.5 75.79-19.45 83.69 0 75.29 0 70.34-12.1 65.99 0ZM99.64 0L90.64 0 90.64-33.85 84.54-33.85 84.54-40.5 105.69-40.5 105.69-33.85 99.64-33.85 99.64 0ZM118.19 0L109.24 0 109.24-40.5 120.39-40.5Q124.49-40.5 127.49-39.6 130.49-38.7 132.16-36.38 133.84-34.05 133.84-29.8L133.84-29.8Q133.84-27.3 133.44-25.35 133.04-23.4 131.96-21.98 130.89-20.55 128.89-19.6L128.89-19.6 134.44 0 125.19 0 120.74-18.15 118.19-18.15 118.19 0ZM118.19-34.5L118.19-23.3 120.69-23.3Q122.59-23.3 123.64-23.98 124.69-24.65 125.11-25.93 125.54-27.2 125.54-29L125.54-29Q125.54-31.6 124.59-33.05 123.64-34.5 121.09-34.5L121.09-34.5 118.19-34.5ZM150.44 0.6L150.44 0.6Q145.89 0.6 143.24-1 140.59-2.6 139.44-5.6 138.28-8.6 138.28-12.75L138.28-12.75 138.28-27.8Q138.28-32 139.44-34.95 140.59-37.9 143.24-39.48 145.89-41.05 150.44-41.05L150.44-41.05Q155.04-41.05 157.71-39.48 160.39-37.9 161.54-34.95 162.69-32 162.69-27.8L162.69-27.8 162.69-12.75Q162.69-8.6 161.54-5.6 160.39-2.6 157.71-1 155.04 0.6 150.44 0.6ZM150.44-5.75L150.44-5.75Q151.84-5.75 152.49-6.45 153.14-7.15 153.34-8.25 153.53-9.35 153.53-10.5L153.53-10.5 153.53-30Q153.53-31.2 153.34-32.27 153.14-33.35 152.49-34.05 151.84-34.75 150.44-34.75L150.44-34.75Q149.14-34.75 148.49-34.05 147.84-33.35 147.64-32.27 147.44-31.2 147.44-30L147.44-30 147.44-10.5Q147.44-9.35 147.61-8.25 147.78-7.15 148.41-6.45 149.03-5.75 150.44-5.75ZM175.78 0L168.13 0 168.13-40.5 174.43-40.5 182.73-21 182.73-40.5 190.13-40.5 190.13 0 184.08 0 175.78-21 175.78 0ZM205.18 0L196.23 0 196.23-40.5 205.18-40.5 205.18 0ZM222.83 0.6L222.83 0.6Q218.23 0.6 215.55-1.07 212.88-2.75 211.78-5.78 210.68-8.8 210.68-12.9L210.68-12.9 210.68-27.5Q210.68-31.7 211.78-34.73 212.88-37.75 215.55-39.4 218.23-41.05 222.83-41.05L222.83-41.05Q227.33-41.05 229.85-39.58 232.38-38.1 233.43-35.45 234.48-32.8 234.48-29.35L234.48-29.35 234.48-25.85 225.73-25.85 225.73-29.9Q225.73-31.1 225.6-32.2 225.48-33.3 224.88-34.02 224.28-34.75 222.83-34.75L222.83-34.75Q221.43-34.75 220.75-34 220.08-33.25 219.9-32.13 219.73-31 219.73-29.75L219.73-29.75 219.73-10.7Q219.73-9.35 219.95-8.22 220.18-7.1 220.85-6.43 221.53-5.75 222.83-5.75L222.83-5.75Q224.23-5.75 224.83-6.48 225.43-7.2 225.58-8.35 225.73-9.5 225.73-10.7L225.73-10.7 225.73-14.95 234.48-14.95 234.48-11.45Q234.48-8 233.45-5.28 232.43-2.55 229.9-0.98 227.38 0.6 222.83 0.6Z" opacity="1" transform="matrix(1,0,0,1,0,0)" fill="#fac402" class="wordmark-text-0" data-fill-palette-color="primary" id="text-0"></path></svg></g></svg></g></svg></g></svg></g><g></g></svg></g><defs></defs></svg><rect width="395.52" height="71.15942980561556" fill="none" stroke="none" visibility="hidden"></rect></g></svg></g></svg>